<svg width="800" height="600" viewBox="0 0 800 600" fill="none" xmlns="http://www.w3.org/2000/svg">
  <defs>
    <linearGradient id="bg" x1="0" y1="0" x2="800" y2="600" gradientUnits="userSpaceOnUse">
      <stop stop-color="#0B1020"/>
      <stop offset="1" stop-color="#15162C"/>
    </linearGradient>
    <linearGradient id="a" x1="120" y1="80" x2="700" y2="520" gradientUnits="userSpaceOnUse">
      <stop stop-color="#6D63F6"/>
      <stop offset="1" stop-color="#A78BFA"/>
    </linearGradient>
  </defs>
  <rect width="800" height="600" fill="url(#bg)"/>
  <rect x="60" y="58" width="680" height="484" rx="36" fill="#FFFFFF" fill-opacity="0.04" stroke="#FFFFFF" stroke-opacity="0.08"/>
  <rect x="92" y="94" width="240" height="18" rx="9" fill="#FFFFFF" fill-opacity="0.22"/>
  <rect x="92" y="138" width="616" height="320" rx="28" fill="#0F172A" fill-opacity="0.75" stroke="#6D63F6" stroke-opacity="0.16"/>
  <path d="M124 378L220 334L286 350L372 270L468 306L570 228L648 250" stroke="url(#a)" stroke-width="12" stroke-linecap="round" stroke-linejoin="round"/>
  <path d="M124 390L220 354L286 368L372 292L468 322L570 260L648 280" stroke="#38BDF8" stroke-width="8" stroke-linecap="round" stroke-linejoin="round" opacity="0.6"/>
  <circle cx="124" cy="378" r="8" fill="#A78BFA"/>
  <circle cx="220" cy="334" r="8" fill="#A78BFA"/>
  <circle cx="286" cy="350" r="8" fill="#A78BFA"/>
  <circle cx="372" cy="270" r="8" fill="#A78BFA"/>
  <circle cx="468" cy="306" r="8" fill="#A78BFA"/>
  <circle cx="570" cy="228" r="8" fill="#A78BFA"/>
  <circle cx="648" cy="250" r="8" fill="#A78BFA"/>
  <rect x="92" y="478" width="122" height="18" rx="9" fill="#6D63F6" fill-opacity="0.65"/>
  <rect x="232" y="478" width="178" height="18" rx="9" fill="#FFFFFF" fill-opacity="0.14"/>
  <rect x="428" y="478" width="114" height="18" rx="9" fill="#FFFFFF" fill-opacity="0.12"/>
</svg>
