<svg width="800" height="600" viewBox="0 0 800 600" fill="none" xmlns="http://www.w3.org/2000/svg">
  <defs>
    <linearGradient id="bg" x1="0" y1="0" x2="800" y2="600" gradientUnits="userSpaceOnUse">
      <stop stop-color="#0C1224"/>
      <stop offset="1" stop-color="#1A1B38"/>
    </linearGradient>
    <linearGradient id="b" x1="140" y1="100" x2="660" y2="500" gradientUnits="userSpaceOnUse">
      <stop stop-color="#38BDF8"/>
      <stop offset="1" stop-color="#6D63F6"/>
    </linearGradient>
  </defs>
  <rect width="800" height="600" fill="url(#bg)"/>
  <circle cx="640" cy="160" r="150" fill="#38BDF8" fill-opacity="0.12"/>
  <circle cx="160" cy="440" r="180" fill="#6D63F6" fill-opacity="0.16"/>
  <rect x="72" y="72" width="656" height="456" rx="40" fill="#FFFFFF" fill-opacity="0.04" stroke="#FFFFFF" stroke-opacity="0.08"/>
  <rect x="116" y="118" width="180" height="20" rx="10" fill="#FFFFFF" fill-opacity="0.2"/>
  <rect x="116" y="168" width="268" height="18" rx="9" fill="#FFFFFF" fill-opacity="0.12"/>
  <rect x="116" y="224" width="568" height="234" rx="28" fill="#0F172A" fill-opacity="0.72" stroke="#38BDF8" stroke-opacity="0.15"/>
  <rect x="148" y="258" width="116" height="162" rx="22" fill="#6D63F6" fill-opacity="0.18" stroke="#A78BFA" stroke-opacity="0.24"/>
  <rect x="286" y="258" width="116" height="162" rx="22" fill="#38BDF8" fill-opacity="0.16" stroke="#38BDF8" stroke-opacity="0.24"/>
  <rect x="424" y="258" width="116" height="162" rx="22" fill="#A78BFA" fill-opacity="0.16" stroke="#A78BFA" stroke-opacity="0.24"/>
  <rect x="562" y="258" width="116" height="162" rx="22" fill="#FFFFFF" fill-opacity="0.06" stroke="#FFFFFF" stroke-opacity="0.14"/>
  <path d="M180 344H232L254 310" stroke="url(#b)" stroke-width="10" stroke-linecap="round" stroke-linejoin="round"/>
  <path d="M318 330L348 300L382 360L396 318" stroke="url(#b)" stroke-width="10" stroke-linecap="round" stroke-linejoin="round"/>
  <path d="M458 352L486 324L514 336L532 292" stroke="url(#b)" stroke-width="10" stroke-linecap="round" stroke-linejoin="round"/>
  <path d="M600 300L630 330L650 300L674 354" stroke="url(#b)" stroke-width="10" stroke-linecap="round" stroke-linejoin="round"/>
</svg>
