<svg width="600" height="800" viewBox="0 0 600 800" fill="none" xmlns="http://www.w3.org/2000/svg">
  <defs>
    <linearGradient id="bg" x1="0" y1="0" x2="600" y2="800" gradientUnits="userSpaceOnUse">
      <stop stop-color="#0C1020"/>
      <stop offset="1" stop-color="#181A31"/>
    </linearGradient>
  </defs>
  <rect width="600" height="800" fill="url(#bg)"/>
  <circle cx="430" cy="205" r="170" fill="#A78BFA" fill-opacity="0.14"/>
  <circle cx="140" cy="160" r="130" fill="#38BDF8" fill-opacity="0.13"/>
  <path d="M168 620C182 518 240 458 300 458C360 458 418 518 432 620" fill="#FFFFFF" fill-opacity="0.08"/>
  <path d="M200 308C200 247 250 198 311 198H323C384 198 434 247 434 308C434 368 386 416 326 416H274C214 416 166 368 166 308H200Z" fill="#F8F9FF" fill-opacity="0.88"/>
  <path d="M182 296C182 220 241 164 300 164C359 164 418 220 418 296C418 284 396 266 300 266C204 266 182 284 182 296Z" fill="#111827" fill-opacity="0.92"/>
  <rect x="226" y="344" width="148" height="18" rx="9" fill="#38BDF8" fill-opacity="0.54"/>
  <rect x="222" y="386" width="156" height="12" rx="6" fill="#FFFFFF" fill-opacity="0.12"/>
</svg>
